<svg xmlns="http://www.w3.org/2000/svg" viewBox="0 0 150 150"><g fill="#0cf"><path d="M60.066 42.695c-22.945 4.621-40.28 24.895-40.28 49.133 0 27.637 22.53 50.133 50.241 50.133 27.707 0 50.227-22.496 50.227-50.133 0-13.148-5.098-25.113-13.422-34.066a36.55 36.55 0 0 1 5.055 18.59c0 20.328-16.512 36.804-36.887 36.804S38.113 96.68 38.113 76.352c0-15.028 9.024-27.938 21.953-33.657"/><path d="M75 8C37.164 8 6.5 38.598 6.5 76.352c0 15.984 5.512 30.68 14.727 42.316a55.1 55.1 0 0 1-6.938-26.84c0-30.668 25.004-55.617 55.738-55.617 30.735 0 55.723 24.95 55.723 55.617 0 22.082-12.969 41.192-31.707 50.172 28.562-8.238 49.441-34.504 49.441-65.648C143.5 38.598 112.836 8 75 8"/></g></svg>
